<svg xmlns="http://www.w3.org/2000/svg" width="200" height="90" viewBox="0 0 200 90">
    <g fill="none" fill-rule="nonzero" transform="translate(22)">
        <path fill="#000" d="M32.221 73.924a4.275 4.275 0 0 0-2.62-3.967 4.257 4.257 0 0 0-4.656.917 4.282 4.282 0 0 0-.927 4.666 4.265 4.265 0 0 0 3.95 2.636 4.046 4.046 0 0 0 3.068-1.18 4.067 4.067 0 0 0 1.185-3.072m-12.693 0c0-4.5 3.524-7.943 8.44-7.943 4.915 0 8.428 3.465 8.428 7.943 0 4.477-3.501 7.942-8.428 7.942-4.927 0-8.44-3.465-8.44-7.942M12.84 74.745c0 1.856-1.875 3.375-4.254 3.375a3.978 3.978 0 0 1-3.176-1.106 3.999 3.999 0 0 1-1.201-3.146c0-2.453 1.795-4.14 4.489-4.14 2.244 0 4.085 1.54 4.085 3.285l.056 1.732zm.167-8.764v1.778h-.056a6.724 6.724 0 0 0-4.994-1.778 7.723 7.723 0 0 0-5.65 2.237A7.76 7.76 0 0 0 .01 73.856a7.885 7.885 0 0 0 2.351 5.713 7.846 7.846 0 0 0 5.741 2.252 6.389 6.389 0 0 0 4.848-1.834h.056v1.53c0 2.06-1.75 3.567-4.085 3.567A6.388 6.388 0 0 1 4.03 83.25l-2.716 2.632a10.424 10.424 0 0 0 7.665 3.06c4.77 0 8.025-3.217 8.025-7.503V65.98h-3.996z"/>
        <path fill="#231F20" d="M42.816 79.954h-.056v1.474h-3.861V60.75h4.164v6.851a7.16 7.16 0 0 1 4.848-1.608 7.92 7.92 0 0 1 7.078 3.931 7.959 7.959 0 0 1-.057 8.111 7.919 7.919 0 0 1-7.133 3.831 6.546 6.546 0 0 1-4.983-1.912zm8.978-6.041a4.156 4.156 0 0 0-1.295-3.134 4.135 4.135 0 0 0-3.194-1.119c-2.245 0-4.253 1.474-4.253 3.263v1.9c0 1.835 1.885 3.32 4.253 3.32a4.068 4.068 0 0 0 3.194-1.096 4.089 4.089 0 0 0 1.273-3.135h.022zM58.146 60.75h4.175v20.677h-4.175zM64.858 74.993v-8.618h4.164v7.987a3.38 3.38 0 0 0 .966 2.714 3.362 3.362 0 0 0 2.704.977 3.62 3.62 0 0 0 2.76-.983 3.638 3.638 0 0 0 1.134-2.707v-7.988h4.22v15.052h-4.03V80.01a7.083 7.083 0 0 1-5.05 1.845c-4.388 0-6.868-2.531-6.868-6.862zM82.983 73.946a8.137 8.137 0 0 1 4.106-7.016 8.098 8.098 0 0 1 8.114.057 8.138 8.138 0 0 1 4.009 7.072v1.125H87.09c.146 1.957 1.717 3.206 4.23 3.206a5.92 5.92 0 0 0 4.59-2.25l2.593 2.61a9.035 9.035 0 0 1-7.16 3.037c-5.241.068-8.361-3.037-8.361-7.84zm12.177-1.653c-.202-1.756-1.75-2.914-3.984-2.914s-3.805 1.125-4.03 2.913h8.014zM105.362 79.954v1.474H101.5V60.75h4.164v6.851h.056a7.183 7.183 0 0 1 4.848-1.608 7.92 7.92 0 0 1 7.078 3.931 7.959 7.959 0 0 1-.057 8.111 7.919 7.919 0 0 1-7.133 3.831 6.545 6.545 0 0 1-5.095-1.912zm8.978-6.041a4.145 4.145 0 0 0-1.291-3.138 4.124 4.124 0 0 0-3.198-1.115c-2.312 0-4.265 1.474-4.265 3.263v1.9c0 1.835 1.897 3.32 4.265 3.32a4.068 4.068 0 0 0 3.194-1.096 4.089 4.089 0 0 0 1.273-3.135h.022zM120.603 59.737h4.32v4.197h-4.32v-4.197zm.09 6.672h4.174v15.018h-4.175V66.41zM127.684 66.375h3.917v1.44h.056a5.896 5.896 0 0 1 4.4-1.733c.831.01 1.656.147 2.446.406l-.875 3.768a6.83 6.83 0 0 0-2.166-.315c-2.245 0-3.603 1.474-3.603 4.59v6.863h-4.175V66.375zM138.65 73.912a7.783 7.783 0 0 1 2.313-5.644 7.745 7.745 0 0 1 5.666-2.23 7.16 7.16 0 0 1 4.882 1.552v-6.84h4.164v20.677h-3.861v-1.473a6.545 6.545 0 0 1-5.04 1.901 7.689 7.689 0 0 1-5.804-2.18 7.727 7.727 0 0 1-2.32-5.763zm12.883.912v-1.901c0-1.79-1.953-3.263-4.265-3.263a4.124 4.124 0 0 0-3.197 1.115 4.145 4.145 0 0 0-1.292 3.137 4.089 4.089 0 0 0 1.28 3.144 4.068 4.068 0 0 0 3.21 1.087c2.368 0 4.242-1.486 4.242-3.32h.022z"/>
        <ellipse cx="78.561" cy="28.058" fill="#00AED6" rx="26.935" ry="27"/>
        <path fill="#FFF" d="M98.875 29.914a4.227 4.227 0 0 0-3.21-3.814c-1.414-.326-3.636-.619-6.016-.889l-3.625-5.917a7.454 7.454 0 0 0-4.23-3.263v-1.125a1.528 1.528 0 0 0-1.516-1.519h-4.096a1.528 1.528 0 0 0-1.515 1.52v.674c-1.302 0-2.447.09-3.367.169a7.384 7.384 0 0 0-5.948 3.926l-3.053 5.704c-.654.1-1.302.236-1.942.405a2.72 2.72 0 0 0-1.863 2.014 21.617 21.617 0 0 0-.235 4.826 4.113 4.113 0 0 0 3.692 3.836h.438v-.157c0-3.2 2.588-5.794 5.78-5.794s5.78 2.594 5.78 5.794c-.007.305-.037.61-.09.911 1.2 0 2.413.056 3.68.056 1.752 0 3.491 0 5.152-.09a5.638 5.638 0 0 1-.09-.877c0-3.2 2.588-5.794 5.78-5.794s5.78 2.594 5.78 5.794v.09c.18 0 1.414 0 1.583-.056a3.37 3.37 0 0 0 3.097-3.083c.045-.63.09-2.756.034-3.341zM74.667 24.57c-3.176 0-6.24.146-8.743.349L68 21.049l.315-.596a3.725 3.725 0 0 1 3.12-1.958l3.21-.146.022 6.221zm2.996 0v-6.255l2.335.124a3.938 3.938 0 0 1 3.187 1.901l1.324 2.25 1.414 2.317c-2.48-.224-5.353-.314-8.26-.337z"/>
        <ellipse cx="68.09" cy="36.574" fill="#FFF" rx="4.018" ry="4.027"/>
        <ellipse cx="88.37" cy="36.574" fill="#FFF" rx="4.018" ry="4.027"/>
    </g>
</svg>
